<?xml version="1.0" standalone="no"?>
<!DOCTYPE svg PUBLIC "-//W3C//DTD SVG 20010904//EN"
 "http://www.w3.org/TR/2001/REC-SVG-20010904/DTD/svg10.dtd">
<svg version="1.0" xmlns="http://www.w3.org/2000/svg"
 width="1080.000000pt" height="1080.000000pt" viewBox="0 0 1080.000000 1080.000000"
 preserveAspectRatio="xMidYMid meet">

<g transform="translate(0.000000,1080.000000) scale(0.100000,-0.100000)"
fill="#000000" stroke="none">
<path d="M3285 9583 c-22 -2 -152 -16 -290 -33 -137 -16 -349 -40 -470 -54
-121 -14 -258 -30 -305 -36 -47 -5 -168 -19 -270 -31 -102 -11 -187 -23 -189
-25 -5 -4 -4 -5 271 -594 61 -129 138 -296 173 -370 34 -74 84 -180 110 -235
26 -55 76 -163 112 -240 36 -77 80 -171 98 -210 18 -38 65 -140 105 -225 86
-185 263 -564 332 -710 27 -58 69 -148 93 -200 23 -52 69 -149 100 -215 31
-66 83 -176 115 -245 32 -69 81 -174 110 -235 28 -60 74 -157 100 -215 26 -58
72 -154 100 -215 29 -60 83 -175 120 -255 37 -80 112 -242 167 -360 55 -118
128 -273 162 -344 33 -70 61 -129 61 -131 0 -1 28 -61 61 -131 34 -71 103
-219 154 -329 51 -110 143 -308 205 -440 62 -132 140 -301 175 -375 35 -74 86
-184 115 -245 29 -60 89 -191 135 -290 46 -99 110 -238 144 -308 34 -70 61
-130 61 -131 0 -2 32 -71 71 -152 39 -82 93 -196 119 -254 27 -58 73 -157 103
-220 29 -63 89 -190 132 -282 43 -93 80 -168 84 -168 3 0 139 372 300 828 162
455 302 847 311 872 10 25 32 86 49 135 41 116 72 203 104 290 22 62 72 201
231 650 47 131 61 163 69 155 2 -3 20 -48 40 -100 46 -122 315 -831 482 -1270
67 -176 141 -371 275 -725 39 -104 73 -191 75 -193 2 -3 38 109 105 333 23 77
45 151 50 165 4 14 27 88 50 165 23 77 61 203 85 280 23 77 60 196 80 265 21
69 43 143 50 165 7 22 29 94 49 160 37 125 142 473 228 755 27 91 58 195 69
231 10 37 23 78 28 90 5 13 25 78 45 144 61 206 136 457 161 535 13 41 35 116
50 165 15 50 37 124 50 165 116 383 176 581 190 630 7 25 33 113 59 195 25 83
60 197 77 255 17 58 35 116 40 130 5 14 31 99 58 190 27 91 66 219 86 285 21
66 44 144 52 174 l14 53 -68 72 c-74 77 -284 301 -374 399 -55 59 -57 60 -64
36 -4 -13 -92 -285 -197 -604 -104 -319 -237 -724 -294 -900 -58 -176 -116
-351 -129 -390 -27 -79 -394 -1198 -481 -1465 -31 -96 -60 -179 -64 -183 -4
-4 -28 54 -55 130 -26 76 -78 226 -115 333 -37 107 -93 267 -123 355 -31 88
-110 318 -177 510 -67 193 -160 460 -207 595 -46 135 -98 283 -114 330 -16 47
-41 118 -55 159 -38 112 -37 112 -72 24 -41 -103 -159 -404 -272 -694 -51
-129 -127 -324 -170 -434 -77 -195 -196 -499 -267 -680 -59 -151 -121 -310
-208 -530 -45 -115 -85 -220 -89 -232 -4 -13 -10 -23 -14 -23 -4 0 -55 116
-114 258 -59 141 -173 415 -254 607 -80 193 -169 404 -196 470 -88 211 -150
358 -178 425 -16 36 -50 119 -78 185 -59 143 -140 337 -189 455 -37 90 -68
164 -107 258 -13 31 -61 145 -106 252 -45 107 -102 245 -127 305 -25 61 -51
124 -58 140 -8 17 -30 71 -50 120 -21 50 -43 104 -50 120 -19 42 -138 327
-179 426 -19 46 -143 345 -276 664 -133 319 -253 605 -265 635 -13 30 -37 89
-54 130 -17 41 -31 76 -31 78 0 1 -3 1 -7 0 -5 -1 -26 -3 -48 -5z"/>
</g>
</svg>
